<?xml version="1.0" encoding="UTF-8"?>
<svg id="Camada_2" data-name="Camada 2" xmlns="http://www.w3.org/2000/svg" viewBox="0 0 796.6 171.34">
  <defs>
    <style>
      .cls-1 {
        fill: #d0d0d8;
      }
    </style>
  </defs>
  <g id="Camada_1-2" data-name="Camada 1">
    <g id="Type_1" data-name="Type 1">
      <g>
        <path class="cls-1" d="M157.77,159.72h-31.92l-.02-.06-3.34-10.1-6.48-20.09h-24.96v-19.09h18.8l-.1-.32-20.41-61.78c-9.03,4.19-15.09,13.82-16.45,22.1-2.81,17.03,7.2,36.67,2.79,49.77-2.51,7.46-8.61,11.77-21.7,9.5,5.68,1.45,18.56,5.52,27.33,13.3v28.38c-14.44-13.92-28.69-17.93-41.39-17.97-19.58-.06-33.67,9.8-39.91,15.2v-25.85c5.59-4.38,17.7-12.23,35.04-14.54,10.42-1.39,15.18-4.91,17.02-9.89,4.02-10.89-7.42-32.79.44-51.29,3.47-8.16,10.66-15.19,24.52-18.52-12.5.93-36.73.39-44.58-2.97-1.73-.74-2.63-1.83-2.72-3.7-.29-6.27.26-20.03.34-21.69.1-2.18.26-4.83,1.65-6.67,1.14-1.5,2.99-2.33,4.63-3.17,8.9-4.58,18.37-7.99,28.12-10.29-.08.03-.72,15.37-.68,24.74,4.76.36,46.82.32,46.82.32l47.14,134.6.03.06Z"/>
        <path class="cls-1" d="M242.32,132.57c-7.24,4.96-14.27,7.86-27.5,7.86-17.37,0-24.19-4.96-24.19-26.88V25.06h-30.39v81.46c0,41.97,17.78,56.03,47.34,56.03,13.03,0,23.36-2.07,29.36-5.79l8.68-15.3,7.24,18.19h19.85V25.06h-30.39v107.51Z"/>
        <path class="cls-1" d="M385.7,113.55l-19.02-5.65c32.05-2.69,40.53-20.81,40.53-40.66,0-28.74-16.74-42.18-50.44-42.18h-58.92v134.59h30.18v-51.07h23.56l27.29,51.07h32.67l-25.85-46.1ZM328.03,89.98v-43.42h24.19c17.58,0,25.57,3.72,25.57,20.05v2.48c0,16.54-7.79,20.88-24.95,20.88h-24.81Z"/>
        <polygon class="cls-1" points="459.7 101.97 510.97 101.97 510.97 80.88 459.7 80.88 459.7 47.39 521.31 47.39 521.31 25.06 429.72 25.06 429.72 159.65 524.41 159.65 524.41 137.74 459.7 137.74 459.7 101.97"/>
        <path class="cls-1" d="M600.78,22.58c-42.39,0-65.13,28.74-65.13,69.47s22.12,70.5,64.71,70.5,65.13-29.15,65.13-70.92-22.53-69.06-64.71-69.06ZM633.45,93.08c0,38.25-11.58,49.01-32.67,49.01s-32.88-9.93-32.88-48.38v-4.96c0-33.5,10.55-44.04,32.46-44.04s33.08,9.93,33.08,43.21v5.17Z"/>
        <polygon class="cls-1" points="770.75 25.06 770.75 93.5 776.95 135.26 761.45 99.28 715.76 25.06 683.71 25.06 683.71 159.65 709.55 159.65 709.55 88.53 703.97 48.01 717.62 82.33 765.79 159.65 796.6 159.65 796.6 25.06 770.75 25.06"/>
      </g>
    </g>
  </g>
</svg>