<?xml version="1.0" encoding="UTF-8"?>
<svg id="Camada_2" data-name="Camada 2" xmlns="http://www.w3.org/2000/svg" viewBox="0 0 613.31 188.32">
  <defs>
    <style>
      .cls-1 {
        fill: #c5c6d1;
      }

      .cls-2 {
        fill: #000d1c;
      }
    </style>
  </defs>
  <g id="Camada_1-2" data-name="Camada 1">
    <g id="Patch_1" data-name="Patch 1">
      <polygon class="cls-1" points="94.16 0 0 188.32 112.99 188.32 225.98 188.32 613.31 188.32 613.31 0 94.16 0"/>
      <path class="cls-2" d="M215.06,135.14h0s-16.38,0-16.38,0l-5.51-10.85,8.23-16.46-40.98-81.96h-27.32l13.66,27.31h0s0,0,0,0h-27.32l-54.63,109.27h27.32l8.83-17.67h9.65l8.83,17.67h109.27l-13.66-27.32ZM187.74,135.14h-81.96l36.15-72.3h9.65l36.15,72.3.06-.11.06.11h-.11Z"/>
      <rect class="cls-2" x="269.26" y="92.16" width="299.29" height="4"/>
      <g>
        <path class="cls-2" d="M330.05,129h2.57c.18,1.56,1.07,2.17,2.92,2.17,1.34,0,2.52-.47,2.52-1.67,0-1.27-1.23-1.52-3.21-1.97-2.32-.53-4.44-1.14-4.44-3.84,0-2.55,2.08-3.88,4.96-3.88s4.8,1.43,5,4.04h-2.52c-.14-1.3-1.16-1.96-2.5-1.96-1.41,0-2.34.6-2.34,1.52,0,1.05.91,1.36,2.83,1.77,2.66.58,4.84,1.21,4.84,4,0,2.63-2.12,4.09-5.04,4.09-3.51,0-5.51-1.56-5.6-4.29Z"/>
        <path class="cls-2" d="M342.31,128.83v-8.78h2.63v8.78c0,1.34.67,2.28,2.43,2.28,1.67,0,2.44-.98,2.44-2.32v-8.75h2.63v8.78c0,2.77-1.7,4.38-5.02,4.38s-5.11-1.58-5.11-4.38Z"/>
        <path class="cls-2" d="M357.51,120.05h2.72l4.56,12.95h-2.73l-.87-2.75h-4.67l-.85,2.75h-2.66l4.51-12.95ZM357.13,128.24h3.42l-1.16-3.73c-.22-.69-.52-1.99-.52-1.99h-.04s-.33,1.3-.54,1.99l-1.16,3.73Z"/>
        <path class="cls-2" d="M372.64,120.05h2.72l4.56,12.95h-2.74l-.87-2.75h-4.67l-.85,2.75h-2.66l4.51-12.95ZM372.26,128.24h3.42l-1.16-3.73c-.22-.69-.52-1.99-.52-1.99h-.04s-.33,1.3-.54,1.99l-1.16,3.73Z"/>
        <path class="cls-2" d="M380.52,128.83v-8.78h2.63v8.78c0,1.34.67,2.28,2.43,2.28,1.67,0,2.44-.98,2.44-2.32v-8.75h2.63v8.78c0,2.77-1.7,4.38-5.02,4.38s-5.11-1.58-5.11-4.38Z"/>
        <path class="cls-2" d="M392.6,120.05h5.94c2.5,0,4.17,1.45,4.17,3.6,0,1.52-.71,2.68-2.37,3.13v.05c1.2.34,1.81,1.03,1.97,2.61.18,1.83.11,3.22.56,3.42v.13h-2.52c-.33-.14-.36-1.59-.47-2.99-.11-1.41-.91-2.21-2.54-2.21h-2.12v5.2h-2.63v-12.95ZM395.23,125.77h2.79c1.43,0,2.14-.74,2.14-1.78s-.67-1.83-2.06-1.83h-2.86v3.6Z"/>
        <path class="cls-2" d="M408.13,120.05h2.72l4.56,12.95h-2.73l-.87-2.75h-4.67l-.85,2.75h-2.66l4.51-12.95ZM407.75,128.24h3.42l-1.16-3.73c-.22-.69-.52-1.99-.52-1.99h-.04s-.33,1.3-.54,1.99l-1.16,3.73Z"/>
        <path class="cls-2" d="M423.25,120.05h2.72l4.56,12.95h-2.74l-.87-2.75h-4.67l-.85,2.75h-2.66l4.51-12.95ZM422.87,128.24h3.42l-1.16-3.73c-.22-.69-.52-1.99-.52-1.99h-.04s-.33,1.3-.54,1.99l-1.16,3.73Z"/>
        <path class="cls-2" d="M429.4,120.05h10.41v2.21h-3.89v10.74h-2.62v-10.74h-3.89v-2.21Z"/>
        <path class="cls-2" d="M441.21,120.05h5.94c2.5,0,4.17,1.45,4.17,3.6,0,1.52-.71,2.68-2.37,3.13v.05c1.2.34,1.81,1.03,1.97,2.61.18,1.83.11,3.22.56,3.42v.13h-2.52c-.33-.14-.36-1.59-.47-2.99-.11-1.41-.91-2.21-2.54-2.21h-2.12v5.2h-2.63v-12.95ZM443.83,125.77h2.79c1.43,0,2.14-.74,2.14-1.78s-.67-1.83-2.06-1.83h-2.86v3.6Z"/>
        <path class="cls-2" d="M456.73,120.05h2.72l4.56,12.95h-2.74l-.87-2.75h-4.67l-.85,2.75h-2.66l4.51-12.95ZM456.35,128.24h3.42l-1.16-3.73c-.22-.69-.53-1.99-.53-1.99h-.04s-.33,1.3-.54,1.99l-1.16,3.73Z"/>
        <path class="cls-2" d="M465.19,120.05h2.63v12.95h-2.63v-12.95Z"/>
        <path class="cls-2" d="M469.58,135.12c.71-.36,1.3-1,1.3-2.12h-1.32v-2.63h2.64v2.48c0,1.85-1.23,2.9-2.63,3.15v-.89Z"/>
        <path class="cls-2" d="M476.46,129h2.57c.18,1.56,1.07,2.17,2.92,2.17,1.34,0,2.52-.47,2.52-1.67,0-1.27-1.23-1.52-3.21-1.97-2.32-.53-4.44-1.14-4.44-3.84,0-2.55,2.08-3.88,4.96-3.88s4.8,1.43,5,4.04h-2.52c-.15-1.3-1.16-1.96-2.5-1.96-1.41,0-2.34.6-2.34,1.52,0,1.05.91,1.36,2.83,1.77,2.66.58,4.84,1.21,4.84,4,0,2.63-2.12,4.09-5.04,4.09-3.51,0-5.51-1.56-5.6-4.29Z"/>
        <path class="cls-2" d="M488.72,128.83v-8.78h2.63v8.78c0,1.34.67,2.28,2.43,2.28s2.45-.98,2.45-2.32v-8.75h2.63v8.78c0,2.77-1.7,4.38-5.02,4.38s-5.11-1.58-5.11-4.38Z"/>
        <path class="cls-2" d="M503.92,120.05h2.72l4.56,12.95h-2.73l-.87-2.75h-4.67l-.85,2.75h-2.66l4.51-12.95ZM503.54,128.24h3.42l-1.16-3.73c-.22-.69-.53-1.99-.53-1.99h-.04s-.33,1.3-.54,1.99l-1.16,3.73Z"/>
        <path class="cls-2" d="M307.96,141.79h5.69c1.5,0,2.62.43,3.39,1.21.72.74,1.16,1.76,1.16,2.95,0,2.45-1.61,4.09-4.33,4.09h-3.19v4.69h-2.72v-12.95ZM310.67,147.91h2.72c1.38,0,2.1-.76,2.1-1.94s-.76-1.9-2.07-1.9h-2.75v3.84Z"/>
        <path class="cls-2" d="M319.57,141.79h5.94c2.5,0,4.17,1.45,4.17,3.6,0,1.52-.71,2.68-2.37,3.13v.05c1.2.34,1.81,1.03,1.97,2.61.18,1.83.11,3.22.56,3.42v.13h-2.52c-.33-.14-.36-1.59-.47-2.99-.11-1.41-.91-2.21-2.54-2.21h-2.12v5.2h-2.63v-12.95ZM322.2,147.51h2.79c1.43,0,2.14-.74,2.14-1.78s-.67-1.83-2.06-1.83h-2.86v3.6Z"/>
        <path class="cls-2" d="M331.43,141.79h9.53v2.21h-6.9v2.9h6.05v2.16h-6.05v3.5h6.96v2.19h-9.58v-12.95Z"/>
        <path class="cls-2" d="M342.05,150.74h2.57c.18,1.56,1.07,2.17,2.92,2.17,1.34,0,2.52-.47,2.52-1.67,0-1.27-1.23-1.52-3.21-1.97-2.32-.53-4.44-1.14-4.44-3.84,0-2.55,2.08-3.88,4.96-3.88s4.8,1.43,5,4.04h-2.52c-.15-1.3-1.16-1.96-2.5-1.96-1.41,0-2.34.6-2.34,1.52,0,1.05.9,1.36,2.82,1.77,2.66.58,4.84,1.21,4.84,4,0,2.63-2.12,4.09-5.04,4.09-3.51,0-5.51-1.56-5.6-4.29Z"/>
        <path class="cls-2" d="M354.33,141.79h9.53v2.21h-6.9v2.9h6.05v2.16h-6.05v3.5h6.96v2.19h-9.58v-12.95Z"/>
        <path class="cls-2" d="M365.62,141.79h2.66l4.31,7.23c.42.71.91,1.81.91,1.81h.04s-.07-1.34-.07-2.25v-6.79h2.59v12.95h-2.54l-4.42-7.15c-.42-.69-.92-1.79-.92-1.79h-.04s.07,1.36.07,2.26v6.68h-2.59v-12.95Z"/>
        <path class="cls-2" d="M381.2,157.69l.33-.58c.36.16.83.27,1.27.27.54,0,1.03-.18,1.03-.56,0-.34-.34-.53-.74-.53-.27,0-.47.05-.67.13l-.29-.4,1.03-1.05c-3.3-.29-5.6-2.99-5.6-6.67s2.39-6.77,6.21-6.77c3.19,0,5.07,1.9,5.34,4.37h-2.61c-.24-1.3-1.21-2.16-2.74-2.16-2.39,0-3.53,1.99-3.53,4.56s1.38,4.55,3.55,4.55c1.54,0,2.63-.92,2.79-2.28h2.57c-.07,1.14-.56,2.25-1.43,3.06-.83.78-1.97,1.29-3.57,1.36l-.76.65v.04c.96-.14,1.92.2,1.92,1.16,0,.87-.96,1.38-2.19,1.38-.81,0-1.45-.22-1.92-.53Z"/>
        <path class="cls-2" d="M393.79,141.79h2.72l4.56,12.95h-2.74l-.87-2.75h-4.67l-.85,2.75h-2.66l4.51-12.95ZM393.41,149.97h3.42l-1.16-3.73c-.22-.69-.53-1.99-.53-1.99h-.04s-.33,1.3-.54,1.99l-1.16,3.73Z"/>
        <path class="cls-2" d="M404.68,141.79h10.42v2.21h-3.89v10.74h-2.63v-10.74h-3.89v-2.21Z"/>
        <path class="cls-2" d="M416.49,141.79h5.94c2.5,0,4.17,1.45,4.17,3.6,0,1.52-.71,2.68-2.37,3.13v.05c1.2.34,1.81,1.03,1.97,2.61.18,1.83.11,3.22.56,3.42v.13h-2.52c-.33-.14-.36-1.59-.47-2.99-.11-1.41-.91-2.21-2.54-2.21h-2.12v5.2h-2.63v-12.95ZM419.12,147.51h2.79c1.43,0,2.14-.74,2.14-1.78s-.67-1.83-2.06-1.83h-2.86v3.6Z"/>
        <path class="cls-2" d="M432.01,141.79h2.72l4.56,12.95h-2.73l-.87-2.75h-4.67l-.85,2.75h-2.66l4.51-12.95ZM431.63,149.97h3.42l-1.16-3.73c-.22-.69-.53-1.99-.53-1.99h-.04s-.33,1.3-.54,1.99l-1.16,3.73Z"/>
        <path class="cls-2" d="M440.46,141.79h2.66l4.31,7.23c.42.71.91,1.81.91,1.81h.04s-.07-1.34-.07-2.25v-6.79h2.59v12.95h-2.54l-4.42-7.15c-.42-.69-.92-1.79-.92-1.79h-.04s.07,1.36.07,2.26v6.68h-2.59v-12.95Z"/>
        <path class="cls-2" d="M452.37,150.74h2.57c.18,1.56,1.07,2.17,2.92,2.17,1.34,0,2.52-.47,2.52-1.67,0-1.27-1.23-1.52-3.21-1.97-2.32-.53-4.44-1.14-4.44-3.84,0-2.55,2.08-3.88,4.96-3.88s4.8,1.43,5,4.04h-2.52c-.14-1.3-1.16-1.96-2.5-1.96-1.41,0-2.34.6-2.34,1.52,0,1.05.91,1.36,2.83,1.77,2.66.58,4.84,1.21,4.84,4,0,2.63-2.12,4.09-5.04,4.09-3.51,0-5.51-1.56-5.6-4.29Z"/>
        <path class="cls-2" d="M464.66,141.79h9.27v2.23h-6.65v3.12h5.63v2.25h-5.63v5.36h-2.63v-12.95Z"/>
        <path class="cls-2" d="M474.57,148.29c0-3.88,2.43-6.76,6.25-6.76s6.23,2.88,6.23,6.76-2.41,6.74-6.23,6.74-6.25-2.86-6.25-6.74ZM484.37,148.29c0-2.59-1.16-4.6-3.53-4.6s-3.59,2.01-3.59,4.6,1.21,4.58,3.59,4.58,3.53-2.01,3.53-4.58Z"/>
        <path class="cls-2" d="M488.55,141.79h5.94c2.5,0,4.17,1.45,4.17,3.6,0,1.52-.71,2.68-2.37,3.13v.05c1.2.34,1.81,1.03,1.97,2.61.18,1.83.11,3.22.56,3.42v.13h-2.52c-.33-.14-.36-1.59-.47-2.99-.11-1.41-.91-2.21-2.54-2.21h-2.12v5.2h-2.63v-12.95ZM491.18,147.51h2.79c1.43,0,2.14-.74,2.14-1.78s-.67-1.83-2.06-1.83h-2.86v3.6Z"/>
        <path class="cls-2" d="M500.42,141.79h3.7l1.83,6.5c.45,1.63.81,3.5.81,3.5h.04s.34-1.87.8-3.5l1.83-6.5h3.75v12.95h-2.45v-7.43c0-1.05.11-2.68.11-2.68h-.04s-.29,1.52-.56,2.46l-2.23,7.64h-2.52l-2.17-7.64c-.27-.94-.56-2.46-.56-2.46h-.04s.11,1.63.11,2.68v7.43h-2.41v-12.95Z"/>
        <path class="cls-2" d="M518.8,141.79h2.72l4.56,12.95h-2.73l-.87-2.75h-4.67l-.85,2.75h-2.66l4.51-12.95ZM518.42,149.97h3.42l-1.16-3.73c-.22-.69-.52-1.99-.52-1.99h-.04s-.33,1.3-.54,1.99l-1.16,3.73Z"/>
        <path class="cls-2" d="M527.23,152.11h2.64v2.63h-2.64v-2.63ZM527.27,144.65v-2.86h2.57v2.86l-.69,6.3h-1.2l-.69-6.3Z"/>
      </g>
      <g>
        <path class="cls-2" d="M360.73,64.7h-7.73s-.81-2.46-.81-2.46l-1.57-4.86h-6.04v-4.62h4.55l-.03-.08-3.27-9.94-1.67-5c-.67.31-1.88,1.33-3.2,3.3-2.03,3.05,1.46,11.24.22,13.58-1.33,2.52-3.05,3.23-5.58,2.79,1.37.35,4.49,1.34,6.61,3.22v6.87c-3.49-3.37-6.94-4.34-10.01-4.35-4.74-.01-8.14,2.37-9.65,3.68v-6.25c1.35-1.06,4.28-2.96,8.47-3.52,4.32-.58,4.62-2.76,4.25-5.38-.4-2.9-1.39-6.92-.15-9.31,1.39-2.68,4.39-4.19,6.06-4.59-3.02.23-8.88.09-10.78-.72-.42-.18-.64-.44-.66-.9-.06-1.33-.03-2.7.03-4.05.02-.4.04-.8.05-1.19.03-.53.06-1.17.4-1.61.28-.36.72-.56,1.12-.77,2.15-1.11,4.44-1.93,6.8-2.49-.02,0-.17,3.72-.16,5.98.64.05,1.79.07,3.12.08.86,0,1.79,0,2.71,0h5.49l11.4,32.56h0Z"/>
        <path class="cls-2" d="M381.18,58.14c-1.75,1.2-3.45,1.9-6.65,1.9-4.2,0-5.85-1.2-5.85-6.5v-21.4h-7.35v19.7c0,10.15,4.3,13.55,11.45,13.55,3.15,0,5.65-.5,7.1-1.4l2.1-3.7,1.75,4.4h4.8v-32.55h-7.35v26Z"/>
        <path class="cls-2" d="M415.86,53.54l-4.6-1.85c7.75-.65,9.8-4.55,9.8-9.35,0-6.95-4.05-10.2-12.2-10.2h-14.25v32.55h7.3v-12.35h5.7l6.6,12.35h7.9l-6.25-11.15ZM401.91,47.84v-10.5h5.85c4.25,0,5.7.9,5.7,4.85v.6c0,4-1.4,5.05-5.55,5.05h-6Z"/>
        <polygon class="cls-2" points="433.76 50.74 446.16 50.74 446.16 45.64 433.76 45.64 433.76 37.54 448.66 37.54 448.66 32.13 426.51 32.13 426.51 64.69 449.41 64.69 449.41 59.39 433.76 59.39 433.76 50.74"/>
        <path class="cls-2" d="M467.88,31.53c-10.25,0-15.75,6.95-15.75,16.8s5.35,17.05,15.65,17.05,15.75-7.05,15.75-17.15-5.45-16.7-15.65-16.7ZM475.78,48.59c0,9.25-2.8,11.85-7.9,11.85s-7.95-2.4-7.95-11.7v-1.2c0-8.1,2.55-10.65,7.85-10.65s8,2.4,8,10.45v1.25Z"/>
        <polygon class="cls-2" points="508.99 32.13 508.99 48.69 510.49 58.79 506.74 50.09 495.69 32.13 487.94 32.13 487.94 64.69 494.19 64.69 494.19 47.49 492.84 37.69 496.14 45.99 507.79 64.69 515.24 64.69 515.24 32.13 508.99 32.13"/>
      </g>
    </g>
  </g>
</svg>