<?xml version="1.0" encoding="UTF-8"?>
<svg id="Camada_2" data-name="Camada 2" xmlns="http://www.w3.org/2000/svg" viewBox="0 0 353.19 353.19">
  <defs>
    <style>
      .cls-1 {
        fill: #c5c6d1;
      }

      .cls-2 {
        fill: #d0d0d8;
      }
    </style>
  </defs>
  <g id="Camada_1-2" data-name="Camada 1">
    <g id="Selo_3" data-name="Selo 3">
      <g>
        <g>
          <path class="cls-1" d="M176.59,353.19c-47.17,0-91.52-18.37-124.87-51.72C18.37,268.11,0,223.76,0,176.59S18.37,85.08,51.72,51.72C85.08,18.37,129.42,0,176.59,0s91.52,18.37,124.87,51.72c33.35,33.35,51.72,77.7,51.72,124.87s-18.37,91.52-51.72,124.87c-33.35,33.35-77.7,51.72-124.87,51.72ZM176.59,5.64C82.33,5.64,5.64,82.33,5.64,176.59s76.69,170.95,170.95,170.95,170.95-76.69,170.95-170.95S270.86,5.64,176.59,5.64Z"/>
          <g>
            <path class="cls-1" d="M109.59,36.83l4.88-2.23,18.82,19.53-4.91,2.24-3.82-4.23-8.4,3.83.73,5.65-4.78,2.18-2.52-26.97ZM115.63,51.86l6.15-2.81-5.14-5.75c-.96-1.06-2.58-3.15-2.58-3.15l-.07.03s.48,2.61.66,4.03l.98,7.66Z"/>
            <path class="cls-1" d="M130.91,46.42l-4.48-16.76,5.01-1.34,4.48,16.76c.68,2.56,2.44,4.01,5.8,3.12,3.18-.85,4.17-3.12,3.48-5.67l-4.47-16.7,5.01-1.34,4.48,16.76c1.41,5.29-1.01,9.23-7.34,10.93-6.39,1.71-10.55-.4-11.99-5.76Z"/>
            <path class="cls-1" d="M152.31,23.36l11.69-1.06c4.92-.45,8.45,2.11,8.84,6.35.27,2.99-.91,5.4-4.11,6.59v.11c2.42.46,3.76,1.71,4.36,4.78.68,3.57.79,6.32,1.72,6.63l.02.25-4.95.45c-.67-.23-1-3.07-1.46-5.8-.47-2.76-2.18-4.19-5.38-3.9l-4.17.38.93,10.23-5.17.47-2.31-25.48ZM158.5,34.15l5.49-.5c2.82-.26,4.07-1.84,3.89-3.87-.19-2.07-1.64-3.48-4.39-3.23l-5.63.51.64,7.09Z"/>
            <path class="cls-1" d="M178.36,21.6l18.77,1.35-.31,4.35-13.6-.98-.41,5.71,11.92.86-.31,4.25-11.92-.86-.5,6.89,13.7.99-.31,4.32-18.88-1.36,1.84-25.51Z"/>
            <path class="cls-1" d="M198.64,35.92c1.84-7.43,7.86-11.81,15.19-9.99,7.33,1.81,10.58,8.48,8.74,15.91-1.84,7.43-7.82,11.78-15.15,9.97-7.33-1.81-10.63-8.45-8.79-15.89ZM217.43,40.56c1.23-4.97-.04-9.37-4.59-10.5-4.55-1.13-7.83,2.15-9.06,7.12-1.22,4.93.15,9.36,4.7,10.49,4.55,1.13,7.73-2.18,8.95-7.11Z"/>
            <path class="cls-1" d="M231.24,31.52l4.78,2.19,1.81,16.52c.17,1.61.14,4,.14,4l.06.03s.97-2.47,1.71-4.09l5.58-12.2,4.65,2.13-10.64,23.26-4.55-2.08-2.06-16.48c-.18-1.58-.19-3.98-.19-3.98l-.07-.03s-.99,2.5-1.73,4.13l-5.49,12.01-4.65-2.13,10.64-23.26Z"/>
          </g>
          <g>
            <path class="cls-1" d="M111.08,291.58l7.86,3.92c1.89.94,3.11,2.13,3.61,3.39.53,1.34.44,2.61-.24,3.99-.89,1.79-2.57,2.4-4.5,2.14l-.04.07c1.66,1.53,2.18,3.81,1.1,5.97-.82,1.64-1.9,2.52-3.37,2.89-1.45.38-3.25.13-5.12-.8l-8.05-4.01,8.75-17.55ZM107.36,307.96l4.1,2.04c1.72.86,3.23.41,3.94-1.01.83-1.67.03-3.14-1.59-3.95l-4-1.99-2.45,4.91ZM114.97,302.35c1.55.77,2.97.56,3.66-.81.65-1.3.07-2.54-1.5-3.32l-3.93-1.96-2.08,4.17,3.85,1.92Z"/>
            <path class="cls-1" d="M131.59,300.86l3.89,1.34.17,20.8-3.92-1.35.11-4.37-6.69-2.3-2.57,3.53-3.81-1.31,12.83-16.33ZM127.02,312.4l4.9,1.68.17-5.91c.03-1.09.23-3.11.23-3.11l-.05-.02s-1.11,1.71-1.76,2.59l-3.5,4.77Z"/>
            <path class="cls-1" d="M142.95,304.59l8.82,1.78c3.71.75,5.75,3.4,5.1,6.6-.46,2.26-1.85,3.77-4.46,3.94l-.02.08c1.67.87,2.38,2.08,2.15,4.46-.28,2.77-.8,4.82-.19,5.25l-.04.19-3.74-.75c-.44-.31-.06-2.47.2-4.58.26-2.13-.68-3.55-3.1-4.04l-3.15-.63-1.56,7.72-3.9-.79,3.88-19.23ZM145.13,313.87l4.14.84c2.12.43,3.4-.46,3.7-1.99.31-1.56-.45-2.92-2.52-3.33l-4.25-.86-1.08,5.35Z"/>
            <path class="cls-1" d="M159.79,307.84l8.76.61c2.11.15,3.69.78,4.63,1.76,1,1.03,1.41,2.24,1.3,3.78-.14,2-1.46,3.2-3.34,3.7v.08c2.11.78,3.46,2.69,3.29,5.1-.13,1.83-.79,3.05-2.01,3.96-1.19.91-2.96,1.36-5.04,1.21l-8.98-.63,1.37-19.57ZM162.61,324.4l4.57.32c1.92.13,3.14-.85,3.25-2.44.13-1.86-1.17-2.91-2.98-3.04l-4.46-.31-.38,5.47ZM167.5,316.3c1.72.12,2.96-.62,3.07-2.15.1-1.45-.91-2.37-2.66-2.5l-4.38-.31-.33,4.65,4.3.3Z"/>
            <path class="cls-1" d="M177.09,308.87l14.41-.79.18,3.34-10.44.57.24,4.38,9.15-.5.18,3.26-9.15.5.29,5.29,10.52-.57.18,3.31-14.49.79-1.07-19.58Z"/>
            <path class="cls-1" d="M198.81,306.88l4.05-.74,10.35,18.04-4.07.75-2.05-3.86-6.96,1.28-.51,4.33-3.97.73,3.17-20.52ZM200.49,319.18l5.1-.94-2.75-5.24c-.51-.97-1.33-2.82-1.33-2.82h-.05s-.13,2.04-.26,3.13l-.7,5.88Z"/>
            <path class="cls-1" d="M210.52,304.57l8.56-2.78c3.6-1.17,6.68.14,7.68,3.25.71,2.19.23,4.19-1.95,5.62l.03.08c1.88-.06,3.09.64,4.06,2.83,1.12,2.55,1.66,4.59,2.41,4.67l.06.18-3.63,1.18c-.54-.06-1.27-2.13-2.07-4.09-.82-1.98-2.34-2.76-4.68-2l-3.05.99,2.43,7.49-3.78,1.23-6.05-18.65ZM216.97,311.59l4.02-1.3c2.06-.67,2.73-2.07,2.25-3.56-.49-1.51-1.82-2.32-3.83-1.67l-4.12,1.34,1.68,5.19Z"/>
            <path class="cls-1" d="M227.06,298.8l3.65-1.57,7.76,18.02-3.65,1.57-7.76-18.02Z"/>
            <path class="cls-1" d="M237.98,293.71l3.61-1.97,15.46,13.9-3.63,1.99-3.15-3.03-6.21,3.39.87,4.28-3.54,1.93-3.4-20.48ZM243.41,304.86l4.55-2.48-4.25-4.12c-.79-.76-2.14-2.27-2.14-2.27l-.05.03s.51,1.97.72,3.04l1.17,5.8Z"/>
          </g>
          <path class="cls-1" d="M176.59,290.51c-62.82,0-113.92-51.1-113.92-113.92s51.1-113.92,113.92-113.92,113.92,51.1,113.92,113.92-51.1,113.92-113.92,113.92ZM176.59,68.31c-59.71,0-108.28,48.57-108.28,108.28s48.57,108.28,108.28,108.28,108.28-48.57,108.28-108.28-48.57-108.28-108.28-108.28Z"/>
          <path class="cls-1" d="M320.28,165.8h-4.32l-10.8,21.59h25.91l-10.8-21.59ZM324.6,183.07v-.02s.02.02.02.02h-.02Z"/>
          <path class="cls-1" d="M39.43,165.8h-4.32l-10.8,21.59h25.91l-10.8-21.59ZM43.75,183.07v-.02s.02.02.02.02h-.02Z"/>
        </g>
        <path class="cls-2" d="M231.22,202.37h0s-13.1,0-13.1,0l-4.41-8.68,6.59-13.17-32.78-65.56h-21.85l10.92,21.85h0s0,0,0,0h-21.85l-43.7,87.41h21.85l7.07-14.13h7.72l7.07,14.13h87.41l-10.93-21.85ZM209.37,202.37h-65.56l28.92-57.83h7.72l28.92,57.83.04-.09.05.09h-.09Z"/>
      </g>
    </g>
  </g>
</svg>